REM DIRINDEX 1\2\5,1\2\6,1\3\7,1\3\8,1\4\9,1\4\10
REM DIRNAME cjc079,folder01,folder02,folder03,folder04,folder05,folder06,folder07,folder08,folder09
TITLE ""
FILE "Track38.mp3" MP3
  TRACK 01 AUDIO
    TITLE "10:cjc079_1576"
    INDEX 01 00:00:00
  TRACK 02 AUDIO
    TITLE "10:cjc079_1577"
    INDEX 01 00:02:22
  TRACK 03 AUDIO
    TITLE "9:cjc079_1578"
    INDEX 01 00:04:52
  TRACK 04 AUDIO
    TITLE "0:"
    INDEX 01 00:05:71
  TRACK 05 AUDIO
    TITLE "9:cjc079_1579"
    INDEX 01 00:06:45
  TRACK 06 AUDIO
    TITLE "0:"
    INDEX 01 00:07:68
  TRACK 07 AUDIO
    TITLE "10:cjc079_1580"
    INDEX 01 00:09:42
  TRACK 08 AUDIO
    TITLE "9:cjc079_1581"
    INDEX 01 00:12:07
  TRACK 09 AUDIO
    TITLE "0:"
    INDEX 01 00:13:43
  TRACK 10 AUDIO
    TITLE "9:cjc079_1582"
    INDEX 01 00:14:13
  TRACK 11 AUDIO
    TITLE "0:"
    INDEX 01 00:15:48
  TRACK 12 AUDIO
    TITLE "10:cjc079_1583"
    INDEX 01 00:17:23
  TRACK 13 AUDIO
    TITLE "9:cjc079_1584"
    INDEX 01 00:19:67
  TRACK 14 AUDIO
    TITLE "0:"
    INDEX 01 00:21:13
  TRACK 15 AUDIO
    TITLE "9:cjc079_1585"
    INDEX 01 00:21:58
  TRACK 16 AUDIO
    TITLE "0:"
    INDEX 01 00:23:12
  TRACK 17 AUDIO
    TITLE "10:cjc079_1586"
    INDEX 01 00:24:61
  TRACK 18 AUDIO
    TITLE "9:cjc079_1587"
    INDEX 01 00:27:32
  TRACK 19 AUDIO
    TITLE "0:"
    INDEX 01 00:28:57
  TRACK 20 AUDIO
    TITLE "9:cjc079_1588"
    INDEX 01 00:29:23
  TRACK 21 AUDIO
    TITLE "0:"
    INDEX 01 00:30:48
  TRACK 22 AUDIO
    TITLE "10:cjc079_1589"
    INDEX 01 00:32:17
  TRACK 23 AUDIO
    TITLE "9:cjc079_1590"
    INDEX 01 00:34:61
  TRACK 24 AUDIO
    TITLE "0:"
    INDEX 01 00:36:09
  TRACK 25 AUDIO
    TITLE "9:cjc079_1591"
    INDEX 01 00:36:52
  TRACK 26 AUDIO
    TITLE "0:"
    INDEX 01 00:38:00
  TRACK 27 AUDIO
    TITLE "10:cjc079_1592"
    INDEX 01 00:39:43
  TRACK 28 AUDIO
    TITLE "9:cjc079_1593"
    INDEX 01 00:41:61
  TRACK 29 AUDIO
    TITLE "0:"
    INDEX 01 00:43:15
  TRACK 30 AUDIO
    TITLE "9:cjc079_1594"
    INDEX 01 00:43:62
  TRACK 31 AUDIO
    TITLE "0:"
    INDEX 01 00:45:08
  TRACK 32 AUDIO
    TITLE "10:cjc079_1595"
    INDEX 01 00:46:56
  TRACK 33 AUDIO
    TITLE "9:cjc079_1596"
    INDEX 01 00:49:20
  TRACK 34 AUDIO
    TITLE "0:"
    INDEX 01 00:50:39
  TRACK 35 AUDIO
    TITLE "9:cjc079_1597"
    INDEX 01 00:51:13
  TRACK 36 AUDIO
    TITLE "0:"
    INDEX 01 00:52:37
  TRACK 37 AUDIO
    TITLE "10:cjc079_1598"
    INDEX 01 00:54:11
  TRACK 38 AUDIO
    TITLE "9:cjc079_1599"
    INDEX 01 00:56:39
  TRACK 39 AUDIO
    TITLE "0:"
    INDEX 01 00:57:74
  TRACK 40 AUDIO
    TITLE "9:cjc079_1600"
    INDEX 01 00:58:46
  TRACK 41 AUDIO
    TITLE "0:"
    INDEX 01 01:00:08
  TRACK 42 AUDIO
    TITLE "10:cjc079_1601"
    INDEX 01 01:01:54
  TRACK 43 AUDIO
    TITLE "9:cjc079_1602"
    INDEX 01 01:04:09
  TRACK 44 AUDIO
    TITLE "0:"
    INDEX 01 01:05:26
  TRACK 45 AUDIO
    TITLE "9:cjc079_1603"
    INDEX 01 01:06:00
  TRACK 46 AUDIO
    TITLE "0:"
    INDEX 01 01:07:17
  TRACK 47 AUDIO
    TITLE "10:cjc079_1604"
    INDEX 01 01:08:66
  TRACK 48 AUDIO
    TITLE "9:cjc079_1605"
    INDEX 01 01:11:21
  TRACK 49 AUDIO
    TITLE "0:"
    INDEX 01 01:12:54
  TRACK 50 AUDIO
    TITLE "9:cjc079_1606"
    INDEX 01 01:13:28
  TRACK 51 AUDIO
    TITLE "0:"
    INDEX 01 01:14:57
  TRACK 52 AUDIO
    TITLE "10:cjc079_1607"
    INDEX 01 01:16:32
  TRACK 53 AUDIO
    TITLE "9:cjc079_1608"
    INDEX 01 01:18:60
  TRACK 54 AUDIO
    TITLE "0:"
    INDEX 01 01:20:12
  TRACK 55 AUDIO
    TITLE "9:cjc079_1609"
    INDEX 01 01:20:57
  TRACK 56 AUDIO
    TITLE "0:"
    INDEX 01 01:22:09
  TRACK 57 AUDIO
    TITLE "10:cjc079_1610"
    INDEX 01 01:23:58
  TRACK 58 AUDIO
    TITLE "9:cjc079_1611"
    INDEX 01 01:26:23
  TRACK 59 AUDIO
    TITLE "0:"
    INDEX 01 01:27:42
  TRACK 60 AUDIO
    TITLE "9:cjc079_1612"
    INDEX 01 01:28:10
  TRACK 61 AUDIO
    TITLE "0:"
    INDEX 01 01:29:27
  TRACK 62 AUDIO
    TITLE "10:cjc079_1613"
    INDEX 01 01:30:71
  TRACK 63 AUDIO
    TITLE "9:cjc079_1614"
    INDEX 01 01:33:36
  TRACK 64 AUDIO
    TITLE "0:"
    INDEX 01 01:34:59
  TRACK 65 AUDIO
    TITLE "9:cjc079_1615"
    INDEX 01 01:35:31
  TRACK 66 AUDIO
    TITLE "0:"
    INDEX 01 01:36:56
  TRACK 67 AUDIO
    TITLE "10:cjc079_1616"
    INDEX 01 01:38:26
  TRACK 68 AUDIO
    TITLE "9:cjc079_1617"
    INDEX 01 01:40:72
  TRACK 69 AUDIO
    TITLE "0:"
    INDEX 01 01:42:18
  TRACK 70 AUDIO
    TITLE "9:cjc079_1618"
    INDEX 01 01:42:65
  TRACK 71 AUDIO
    TITLE "0:"
    INDEX 01 01:44:11
  TRACK 72 AUDIO
    TITLE "10:cjc079_1619"
    INDEX 01 01:45:61
  TRACK 73 AUDIO
    TITLE "9:cjc079_1620"
    INDEX 01 01:48:30
  TRACK 74 AUDIO
    TITLE "0:"
    INDEX 01 01:49:59
  TRACK 75 AUDIO
    TITLE "9:cjc079_1621"
    INDEX 01 01:50:37
  TRACK 76 AUDIO
    TITLE "0:"
    INDEX 01 01:51:60
  TRACK 77 AUDIO
    TITLE "10:cjc079_1622"
    INDEX 01 01:53:35
  TRACK 78 AUDIO
    TITLE "9:cjc079_1623"
    INDEX 01 01:55:52
  TRACK 79 AUDIO
    TITLE "0:"
    INDEX 01 01:56:71
  TRACK 80 AUDIO
    TITLE "9:cjc079_1624"
    INDEX 01 01:57:47
  TRACK 81 AUDIO
    TITLE "0:"
    INDEX 01 01:58:66
